<svg width="39" height="50" viewBox="0 0 39 50" fill="none" xmlns="http://www.w3.org/2000/svg">
<path d="M36.5137 30.5825L34.8887 24.31L29.77 5.47625C29.6594 5.06081 29.3886 4.70612 29.0171 4.48988C28.6455 4.27363 28.2034 4.21345 27.7875 4.3225L21.4987 5.9475C21.3487 5.78118 21.1658 5.64768 20.9617 5.5554C20.7575 5.46311 20.5365 5.41404 20.3125 5.41125H4.0625C3.63152 5.41125 3.2182 5.58246 2.91345 5.8872C2.6087 6.19195 2.4375 6.60528 2.4375 7.03625V33.0363C2.4375 33.4672 2.6087 33.8806 2.91345 34.1853C3.2182 34.4901 3.63152 34.6613 4.0625 34.6613H20.3125C20.7435 34.6613 21.1568 34.4901 21.4615 34.1853C21.7663 33.8806 21.9375 33.4672 21.9375 33.0363V20.0363L25.5125 33.3938C25.6077 33.7483 25.8202 34.0601 26.1152 34.2785C26.4103 34.4968 26.7706 34.6088 27.1375 34.5963C27.2779 34.6122 27.4196 34.6122 27.56 34.5963L35.4088 32.5C35.6163 32.4445 35.8107 32.3485 35.9808 32.2174C36.151 32.0863 36.2934 31.9228 36.4 31.7363C36.5714 31.3767 36.6117 30.9686 36.5137 30.5825ZM10.5137 31.4763H5.63875V28.2263H10.5137V31.4763ZM10.5137 24.9763H5.63875V15.2263H10.5137V24.9763ZM10.5137 11.9763H5.63875V8.72625H10.5137V11.9763ZM18.6388 31.4763H13.7638V28.2263H18.6388V31.4763ZM18.6388 24.9763H13.7638V15.2263H18.6388V24.9763ZM18.6388 11.9763H13.7638V8.72625H18.6388V11.9763ZM22.295 9.14875L27.0075 7.88125L27.8525 11.0175L23.14 12.285L22.295 9.14875ZM26.5037 24.8463L23.985 15.4213L28.6975 14.1538L31.2162 23.5788L26.5037 24.8463ZM28.1287 31.1188L27.2838 27.9825L31.9963 26.715L32.8412 29.8513L28.1287 31.1188Z" fill="#309AE3"/>
<rect x="2" y="45" width="35" height="5" rx="2.5" fill="#309AE3"/>
</svg>
