<svg width="32" height="32" viewBox="0 0 32 32" fill="none" xmlns="http://www.w3.org/2000/svg">
<path d="M24.6666 26.6667H7.33331L3.33331 30.6667V8C3.33331 5.8 5.13331 4 7.33331 4H24.6666C26.8666 4 28.6666 5.8 28.6666 8V22.6667C28.6666 24.8667 26.8666 26.6667 24.6666 26.6667Z" fill="#444444"/>
<path d="M14.6667 13.3333H17.3334V20.6666H14.6667V13.3333Z" fill="white"/>
<path d="M16 11.3333C16.7364 11.3333 17.3334 10.7363 17.3334 9.99996C17.3334 9.26358 16.7364 8.66663 16 8.66663C15.2636 8.66663 14.6667 9.26358 14.6667 9.99996C14.6667 10.7363 15.2636 11.3333 16 11.3333Z" fill="white"/>
</svg>
