<?xml version="1.0" encoding="UTF-8" standalone="no"?><!DOCTYPE svg PUBLIC "-//W3C//DTD SVG 1.1//EN" "http://www.w3.org/Graphics/SVG/1.1/DTD/svg11.dtd"><svg width="100%" height="100%" viewBox="0 0 1794 1916" version="1.1" xmlns="http://www.w3.org/2000/svg" xmlns:xlink="http://www.w3.org/1999/xlink" xml:space="preserve" xmlns:serif="http://www.serif.com/" style="fill-rule:evenodd;clip-rule:evenodd;stroke-linejoin:round;stroke-miterlimit:2;"><path d="M136.701,1890.89c-43.586,25.165 -77.266,30.884 -101.04,17.158c-23.774,-13.726 -35.661,-46.325 -35.661,-97.798l0,-905.914c0,-51.472 11.887,-97.797 35.661,-138.975c23.774,-41.178 57.949,-74.635 102.526,-100.371l365.526,-211.037c118.871,-68.63 210.748,-86.502 275.631,-53.617c64.884,32.885 97.325,111.094 97.325,234.628c0,123.534 -32.441,239.204 -97.325,347.01c-64.883,107.806 -156.76,196.024 -275.631,264.654l-230.311,132.97l-0,272.804c-0,51.472 -11.639,97.654 -34.918,138.546c-23.279,40.892 -57.207,74.206 -101.783,99.942Zm136.701,-753.212l182.763,-105.519c106.984,-61.767 160.475,-144.122 160.475,-247.067c0,-102.945 -53.491,-123.534 -160.475,-61.767l-182.763,105.518l-0,308.835Z" style="fill:#fff;fill-rule:nonzero;"/><path d="M827.477,1507.52c-46.557,26.88 -80.732,28.31 -102.525,4.29c-21.793,-24.021 -21.793,-69.774 -0,-137.26l369.984,-1133.25c17.83,-54.904 39.623,-100.085 65.378,-135.544c25.756,-35.458 55.969,-63.196 90.639,-83.213c33.68,-19.445 63.398,-26.308 89.153,-20.589c25.755,5.719 47.548,25.736 65.379,60.051l369.984,706.03c22.783,42.893 23.774,88.36 2.972,136.401c-20.803,48.041 -53.492,84.93 -98.069,110.666c-39.623,22.877 -70.084,30.169 -91.381,21.876c-21.298,-8.293 -40.367,-30.455 -57.207,-66.485l-47.548,-102.945l-468.052,270.23l-47.548,157.849c-17.831,56.047 -36.156,99.799 -54.978,131.254c-18.821,31.455 -47.548,58.335 -86.181,80.64Zm420.504,-1138.4l-142.644,475.262l288.261,-166.427l-142.645,-310.55l-2.972,1.715Z" style="fill:#fff;fill-rule:nonzero;"/></svg>