<?xml version="1.0" encoding="UTF-8" standalone="no"?><!DOCTYPE svg PUBLIC "-//W3C//DTD SVG 1.1//EN" "http://www.w3.org/Graphics/SVG/1.1/DTD/svg11.dtd"><svg width="100%" height="100%" viewBox="0 0 2602 2855" version="1.1" xmlns="http://www.w3.org/2000/svg" xmlns:xlink="http://www.w3.org/1999/xlink" xml:space="preserve" xmlns:serif="http://www.serif.com/" style="fill-rule:evenodd;clip-rule:evenodd;stroke-linejoin:round;stroke-miterlimit:2;"><g><path d="M143.144,2002.41c-95.096,54.904 -142.644,28.024 -142.644,-80.64l0,-883.61c0,-108.664 47.548,-190.448 142.644,-245.351l503.714,-290.819c71.322,-41.178 106.983,-21.733 106.983,58.335c0,82.356 -35.661,144.123 -106.983,185.301l-384.843,222.189l-0,229.91l352.153,-203.316c71.323,-41.178 106.984,-21.161 106.984,60.051c-0,81.212 -35.661,142.407 -106.984,183.585l-352.153,203.316l-0,248.783l384.843,-222.189c71.322,-41.178 106.983,-21.161 106.983,60.051c0,81.212 -35.661,142.407 -106.983,183.585l-503.714,290.819Z" style="fill:#fff;fill-rule:nonzero;stroke:#ff7582;stroke-width:1px;"/><path d="M950.404,1521.9c-95.096,54.904 -142.644,28.024 -142.644,-80.64l-0,-883.61c-0,-108.664 47.548,-190.448 142.644,-245.352l503.714,-290.819c71.322,-41.177 106.983,-21.732 106.983,58.336c0,82.356 -35.661,144.123 -106.983,185.3l-384.843,222.19l-0,229.91l352.153,-203.316c71.323,-41.178 106.984,-21.161 106.984,60.051c-0,81.212 -35.661,142.407 -106.984,183.585l-352.153,203.316l-0,248.783l384.843,-222.189c71.322,-41.178 106.983,-21.161 106.983,60.051c0,81.212 -35.661,142.407 -106.983,183.585l-503.714,290.819Z" style="fill:#fff;fill-rule:nonzero;stroke:#ff7582;stroke-width:1px;"/><path d="M944.461,2830.41c-43.586,25.164 -77.266,30.883 -101.04,17.157c-23.774,-13.726 -35.661,-46.325 -35.661,-97.797l-0,-905.914c-0,-51.473 11.887,-97.798 35.661,-138.976c23.774,-41.178 57.949,-74.635 102.526,-100.371l365.526,-211.037c118.871,-68.63 210.748,-86.502 275.631,-53.617c64.883,32.885 97.325,111.095 97.325,234.629c0,123.533 -32.442,239.203 -97.325,347.009c-64.883,107.806 -156.76,196.024 -275.631,264.654l-230.311,132.97l-0,272.804c-0,51.473 -11.639,97.655 -34.918,138.547c-23.279,40.892 -57.207,74.206 -101.783,99.942Zm136.701,-753.213l182.763,-105.518c106.983,-61.767 160.475,-144.123 160.475,-247.068c0,-102.944 -53.492,-123.533 -160.475,-61.767l-182.763,105.519l-0,308.834Z" style="fill:#fff;fill-rule:nonzero;"/><path d="M1635.24,2447.03c-46.557,26.88 -80.733,28.31 -102.525,4.289c-21.793,-24.02 -21.793,-69.774 -0,-137.26l369.984,-1133.25c17.83,-54.904 39.623,-100.085 65.378,-135.544c25.756,-35.459 55.969,-63.197 90.639,-83.214c33.68,-19.445 63.398,-26.308 89.153,-20.589c25.755,5.719 47.548,25.736 65.379,60.051l369.984,706.03c22.783,42.894 23.774,88.361 2.972,136.402c-20.803,48.041 -53.492,84.929 -98.069,110.666c-39.623,22.876 -70.084,30.168 -91.381,21.875c-21.298,-8.293 -40.367,-30.454 -57.207,-66.485l-47.548,-102.945l-468.052,270.23l-47.548,157.849c-17.831,56.048 -36.157,99.799 -54.978,131.255c-18.821,31.455 -47.548,58.335 -86.181,80.64Zm420.504,-1138.4l-142.644,475.262l288.261,-166.428l-142.645,-310.55l-2.972,1.716Z" style="fill:#fff;fill-rule:nonzero;"/></g></svg>