<?xml version="1.0" encoding="UTF-8" standalone="no"?><!DOCTYPE svg PUBLIC "-//W3C//DTD SVG 1.1//EN" "http://www.w3.org/Graphics/SVG/1.1/DTD/svg11.dtd"><svg width="100%" height="100%" viewBox="0 0 1562 2031" version="1.1" xmlns="http://www.w3.org/2000/svg" xmlns:xlink="http://www.w3.org/1999/xlink" xml:space="preserve" xmlns:serif="http://www.serif.com/" style="fill-rule:evenodd;clip-rule:evenodd;stroke-linejoin:round;stroke-miterlimit:2;"><path d="M143.144,2002.41c-95.096,54.904 -142.644,28.024 -142.644,-80.64l0,-883.61c0,-108.664 47.548,-190.448 142.644,-245.351l503.714,-290.819c71.322,-41.178 106.983,-21.733 106.983,58.335c0,82.356 -35.661,144.123 -106.983,185.301l-384.843,222.189l-0,229.91l352.153,-203.316c71.323,-41.178 106.984,-21.161 106.984,60.051c-0,81.212 -35.661,142.407 -106.984,183.585l-352.153,203.316l-0,248.783l384.843,-222.189c71.322,-41.178 106.983,-21.161 106.983,60.051c0,81.212 -35.661,142.407 -106.983,183.585l-503.714,290.819Z" style="fill:#fff;fill-rule:nonzero;stroke:#ff7582;stroke-width:1px;"/><path d="M950.404,1521.9c-95.096,54.904 -142.644,28.024 -142.644,-80.64l-0,-883.61c-0,-108.664 47.548,-190.448 142.644,-245.352l503.714,-290.819c71.322,-41.177 106.983,-21.732 106.983,58.336c0,82.356 -35.661,144.123 -106.983,185.3l-384.843,222.19l-0,229.91l352.153,-203.316c71.323,-41.178 106.984,-21.161 106.984,60.051c-0,81.212 -35.661,142.407 -106.984,183.585l-352.153,203.316l-0,248.783l384.843,-222.189c71.322,-41.178 106.983,-21.161 106.983,60.051c0,81.212 -35.661,142.407 -106.983,183.585l-503.714,290.819Z" style="fill:#fff;fill-rule:nonzero;stroke:#ff7582;stroke-width:1px;"/></svg>