<?xml version="1.0" encoding="UTF-8" standalone="no"?><!DOCTYPE svg PUBLIC "-//W3C//DTD SVG 1.1//EN" "http://www.w3.org/Graphics/SVG/1.1/DTD/svg11.dtd"><svg width="100%" height="100%" viewBox="0 0 1644 636" version="1.1" xmlns="http://www.w3.org/2000/svg" xmlns:xlink="http://www.w3.org/1999/xlink" xml:space="preserve" xmlns:serif="http://www.serif.com/" style="fill-rule:evenodd;clip-rule:evenodd;stroke-linecap:round;stroke-linejoin:round;stroke-miterlimit:1.5;"><path d="M1644,0l-1644,0l0,517.89c-0,31.325 12.444,61.366 34.594,83.516c22.15,22.15 52.191,34.594 83.516,34.594l1407.78,0c31.325,0 61.366,-12.444 83.516,-34.594c22.15,-22.15 34.594,-52.191 34.594,-83.516l0,-517.89Z" style="fill:#38a1ea;"/><clipPath id="_clip1"><path d="M1644,0l-1644,0l0,517.89c-0,31.325 12.444,61.366 34.594,83.516c22.15,22.15 52.191,34.594 83.516,34.594l1407.78,0c31.325,0 61.366,-12.444 83.516,-34.594c22.15,-22.15 34.594,-52.191 34.594,-83.516l0,-517.89Z"/></clipPath><g clip-path="url(#_clip1)"><path d="M1055.83,-20.581c-0,0 294.055,462.993 -61.366,801.489" style="fill:none;stroke:#87ceff;stroke-width:8.33px;"/><path d="M1229.06,779.697l535.4,1.211l0,-801.489l-610.937,0c-0,0 368.36,406.377 75.537,800.278Z" style="fill:#1086d7;"/></g></svg>