<svg width="169" height="164" viewBox="0 0 169 164" fill="none" xmlns="http://www.w3.org/2000/svg">
<rect x="0.294922" width="168.324" height="164" rx="10" fill="#309AE3"/>
<path d="M26.826 90C26.286 90 25.872 89.856 25.584 89.568C25.296 89.268 25.152 88.854 25.152 88.326V78.966C25.152 78.426 25.296 78.012 25.584 77.724C25.872 77.436 26.28 77.292 26.808 77.292C27.336 77.292 27.744 77.436 28.032 77.724C28.32 78.012 28.464 78.426 28.464 78.966V87.246H32.856C33.312 87.246 33.66 87.366 33.9 87.606C34.152 87.846 34.278 88.182 34.278 88.614C34.278 89.058 34.152 89.4 33.9 89.64C33.66 89.88 33.312 90 32.856 90H26.826ZM40.2014 90.198C39.1214 90.198 38.1854 90.012 37.3934 89.64C36.6134 89.256 36.0134 88.716 35.5934 88.02C35.1734 87.324 34.9634 86.502 34.9634 85.554C34.9634 84.654 35.1614 83.856 35.5574 83.16C35.9654 82.464 36.5174 81.924 37.2134 81.54C37.9214 81.144 38.7254 80.946 39.6254 80.946C40.5134 80.946 41.2814 81.132 41.9294 81.504C42.5894 81.876 43.0934 82.41 43.4414 83.106C43.8014 83.79 43.9814 84.594 43.9814 85.518C43.9814 85.986 43.7054 86.22 43.1534 86.22H38.0234C38.1314 86.796 38.3714 87.21 38.7434 87.462C39.1154 87.714 39.6314 87.84 40.2914 87.84C40.5434 87.84 40.8434 87.81 41.1914 87.75C41.5394 87.69 41.8694 87.594 42.1814 87.462C42.5654 87.318 42.8894 87.318 43.1534 87.462C43.4174 87.594 43.5914 87.804 43.6754 88.092C43.7714 88.368 43.7594 88.656 43.6394 88.956C43.5314 89.244 43.3094 89.466 42.9734 89.622C42.5534 89.826 42.1034 89.97 41.6234 90.054C41.1554 90.15 40.6814 90.198 40.2014 90.198ZM39.7694 83.016C39.2894 83.016 38.8934 83.16 38.5814 83.448C38.2814 83.736 38.0894 84.156 38.0054 84.708H41.3534C41.3174 84.144 41.1614 83.724 40.8854 83.448C40.6214 83.16 40.2494 83.016 39.7694 83.016ZM51.1938 90.198C50.6058 90.198 50.0658 90.072 49.5738 89.82C49.0938 89.568 48.7338 89.232 48.4938 88.812C48.3978 89.712 47.8818 90.162 46.9458 90.162C45.8898 90.162 45.3618 89.622 45.3618 88.542V78.768C45.3618 77.688 45.8898 77.148 46.9458 77.148C47.4618 77.148 47.8578 77.286 48.1338 77.562C48.4218 77.838 48.5658 78.24 48.5658 78.768V82.206C48.8178 81.822 49.1778 81.516 49.6458 81.288C50.1258 81.06 50.6418 80.946 51.1938 80.946C51.9618 80.946 52.6338 81.132 53.2098 81.504C53.7978 81.876 54.2538 82.41 54.5778 83.106C54.9018 83.79 55.0638 84.612 55.0638 85.572C55.0638 86.52 54.8958 87.342 54.5598 88.038C54.2358 88.734 53.7798 89.268 53.1918 89.64C52.6158 90.012 51.9498 90.198 51.1938 90.198ZM50.1858 87.84C50.6658 87.84 51.0618 87.66 51.3738 87.3C51.6858 86.94 51.8418 86.364 51.8418 85.572C51.8418 84.768 51.6858 84.192 51.3738 83.844C51.0618 83.484 50.6658 83.304 50.1858 83.304C49.6938 83.304 49.2918 83.484 48.9798 83.844C48.6678 84.192 48.5118 84.768 48.5118 85.572C48.5118 86.364 48.6678 86.94 48.9798 87.3C49.2918 87.66 49.6938 87.84 50.1858 87.84ZM58.1079 79.704C57.5439 79.704 57.1059 79.572 56.7939 79.308C56.4939 79.044 56.3439 78.66 56.3439 78.156C56.3439 77.664 56.4939 77.286 56.7939 77.022C57.1059 76.758 57.5439 76.626 58.1079 76.626C59.2959 76.626 59.8899 77.136 59.8899 78.156C59.8899 78.66 59.7339 79.044 59.4219 79.308C59.1219 79.572 58.6839 79.704 58.1079 79.704ZM58.1079 90.162C57.5919 90.162 57.1959 90.012 56.9199 89.712C56.6559 89.412 56.5239 88.98 56.5239 88.416V82.728C56.5239 82.164 56.6559 81.732 56.9199 81.432C57.1959 81.132 57.5919 80.982 58.1079 80.982C58.6239 80.982 59.0199 81.132 59.2959 81.432C59.5839 81.732 59.7279 82.164 59.7279 82.728V88.416C59.7279 88.98 59.5899 89.412 59.3139 89.712C59.0379 90.012 58.6359 90.162 58.1079 90.162ZM63.1704 90.162C62.6544 90.162 62.2584 90.024 61.9824 89.748C61.7184 89.472 61.5864 89.07 61.5864 88.542V78.768C61.5864 77.688 62.1144 77.148 63.1704 77.148C63.6864 77.148 64.0824 77.286 64.3584 77.562C64.6464 77.838 64.7904 78.24 64.7904 78.768V82.242C65.4264 81.378 66.3504 80.946 67.5624 80.946C68.6184 80.946 69.3984 81.258 69.9024 81.882C70.4184 82.506 70.6764 83.466 70.6764 84.762V88.542C70.6764 89.07 70.5384 89.472 70.2624 89.748C69.9864 90.024 69.5904 90.162 69.0744 90.162C68.5584 90.162 68.1624 90.024 67.8864 89.748C67.6104 89.472 67.4724 89.07 67.4724 88.542V84.888C67.4724 84.348 67.3764 83.964 67.1844 83.736C67.0044 83.508 66.7344 83.394 66.3744 83.394C65.8944 83.394 65.5104 83.55 65.2224 83.862C64.9344 84.162 64.7904 84.57 64.7904 85.086V88.542C64.7904 89.622 64.2504 90.162 63.1704 90.162ZM79.5968 90C78.4448 90 77.8688 89.43 77.8688 88.29V79.02C77.8688 77.88 78.4448 77.31 79.5968 77.31H83.9888C85.3568 77.31 86.4128 77.61 87.1568 78.21C87.9128 78.798 88.2908 79.59 88.2908 80.586C88.2908 81.246 88.1228 81.822 87.7868 82.314C87.4628 82.806 87.0068 83.172 86.4188 83.412C87.1268 83.628 87.6728 83.994 88.0568 84.51C88.4408 85.014 88.6328 85.644 88.6328 86.4C88.6328 87.516 88.2308 88.398 87.4268 89.046C86.6348 89.682 85.5488 90 84.1688 90H79.5968ZM81.0368 82.35H83.3948C83.9948 82.35 84.4328 82.242 84.7088 82.026C84.9968 81.81 85.1408 81.48 85.1408 81.036C85.1408 80.592 84.9968 80.268 84.7088 80.064C84.4328 79.848 83.9948 79.74 83.3948 79.74H81.0368V82.35ZM81.0368 87.57H83.7188C84.3308 87.57 84.7748 87.456 85.0508 87.228C85.3388 86.988 85.4828 86.634 85.4828 86.166C85.4828 85.698 85.3388 85.35 85.0508 85.122C84.7748 84.894 84.3308 84.78 83.7188 84.78H81.0368V87.57ZM93.3695 90.198C92.6855 90.198 92.0795 90.072 91.5515 89.82C91.0355 89.568 90.6275 89.226 90.3275 88.794C90.0395 88.35 89.8955 87.846 89.8955 87.282C89.8955 86.646 90.0635 86.142 90.3995 85.77C90.7355 85.386 91.2755 85.116 92.0195 84.96C92.7635 84.792 93.7535 84.708 94.9895 84.708H95.6735V84.456C95.6735 84.024 95.5595 83.718 95.3315 83.538C95.1155 83.358 94.7375 83.268 94.1975 83.268C93.8975 83.268 93.5675 83.304 93.2075 83.376C92.8595 83.436 92.4635 83.55 92.0195 83.718C91.6235 83.862 91.2935 83.856 91.0295 83.7C90.7655 83.544 90.5915 83.322 90.5075 83.034C90.4355 82.734 90.4655 82.44 90.5975 82.152C90.7415 81.852 91.0115 81.63 91.4075 81.486C91.9835 81.282 92.5115 81.144 92.9915 81.072C93.4835 80.988 93.9335 80.946 94.3415 80.946C95.8175 80.946 96.9095 81.264 97.6175 81.9C98.3375 82.536 98.6975 83.538 98.6975 84.906V88.542C98.6975 89.622 98.2055 90.162 97.2215 90.162C96.2855 90.162 95.7875 89.682 95.7275 88.722C95.5595 89.178 95.2715 89.538 94.8635 89.802C94.4555 90.066 93.9575 90.198 93.3695 90.198ZM94.0895 88.11C94.5335 88.11 94.9055 87.966 95.2055 87.678C95.5175 87.39 95.6735 87.012 95.6735 86.544V86.22H94.9895C94.2815 86.22 93.7595 86.298 93.4235 86.454C93.0995 86.598 92.9375 86.832 92.9375 87.156C92.9375 87.432 93.0335 87.66 93.2255 87.84C93.4295 88.02 93.7175 88.11 94.0895 88.11ZM102.106 90.162C101.59 90.162 101.194 90.024 100.918 89.748C100.654 89.472 100.522 89.07 100.522 88.542V82.584C100.522 81.516 101.044 80.982 102.088 80.982C103.036 80.982 103.552 81.444 103.636 82.368C103.936 81.912 104.332 81.564 104.824 81.324C105.328 81.072 105.886 80.946 106.498 80.946C107.554 80.946 108.334 81.258 108.838 81.882C109.354 82.506 109.612 83.466 109.612 84.762V88.542C109.612 89.07 109.474 89.472 109.198 89.748C108.922 90.024 108.526 90.162 108.01 90.162C107.494 90.162 107.098 90.024 106.822 89.748C106.546 89.472 106.408 89.07 106.408 88.542V84.888C106.408 84.348 106.312 83.964 106.12 83.736C105.94 83.508 105.67 83.394 105.31 83.394C104.83 83.394 104.446 83.55 104.158 83.862C103.87 84.162 103.726 84.57 103.726 85.086V88.542C103.726 89.622 103.186 90.162 102.106 90.162ZM113.924 93.402C113.552 93.402 113.246 93.306 113.006 93.114C112.778 92.922 112.64 92.67 112.592 92.358C112.544 92.058 112.598 91.728 112.754 91.368L113.672 89.388L110.882 83.016C110.642 82.476 110.642 82.002 110.882 81.594C111.122 81.186 111.59 80.982 112.286 80.982C112.658 80.982 112.964 81.072 113.204 81.252C113.444 81.42 113.66 81.756 113.852 82.26L115.364 86.166L116.948 82.242C117.14 81.75 117.356 81.42 117.596 81.252C117.848 81.072 118.184 80.982 118.604 80.982C119.132 80.982 119.504 81.186 119.72 81.594C119.948 82.002 119.942 82.476 119.702 83.016L115.616 92.196C115.4 92.664 115.16 92.982 114.896 93.15C114.644 93.318 114.32 93.402 113.924 93.402ZM123.991 90.198C123.307 90.198 122.701 90.072 122.173 89.82C121.657 89.568 121.249 89.226 120.949 88.794C120.661 88.35 120.517 87.846 120.517 87.282C120.517 86.646 120.685 86.142 121.021 85.77C121.357 85.386 121.897 85.116 122.641 84.96C123.385 84.792 124.375 84.708 125.611 84.708H126.295V84.456C126.295 84.024 126.181 83.718 125.953 83.538C125.737 83.358 125.359 83.268 124.819 83.268C124.519 83.268 124.189 83.304 123.829 83.376C123.481 83.436 123.085 83.55 122.641 83.718C122.245 83.862 121.915 83.856 121.651 83.7C121.387 83.544 121.213 83.322 121.129 83.034C121.057 82.734 121.087 82.44 121.219 82.152C121.363 81.852 121.633 81.63 122.029 81.486C122.605 81.282 123.133 81.144 123.613 81.072C124.105 80.988 124.555 80.946 124.963 80.946C126.439 80.946 127.531 81.264 128.239 81.9C128.959 82.536 129.319 83.538 129.319 84.906V88.542C129.319 89.622 128.827 90.162 127.843 90.162C126.907 90.162 126.409 89.682 126.349 88.722C126.181 89.178 125.893 89.538 125.485 89.802C125.077 90.066 124.579 90.198 123.991 90.198ZM124.711 88.11C125.155 88.11 125.527 87.966 125.827 87.678C126.139 87.39 126.295 87.012 126.295 86.544V86.22H125.611C124.903 86.22 124.381 86.298 124.045 86.454C123.721 86.598 123.559 86.832 123.559 87.156C123.559 87.432 123.655 87.66 123.847 87.84C124.051 88.02 124.339 88.11 124.711 88.11ZM132.727 90.162C132.211 90.162 131.815 90.024 131.539 89.748C131.275 89.472 131.143 89.07 131.143 88.542V78.768C131.143 77.688 131.671 77.148 132.727 77.148C133.243 77.148 133.639 77.286 133.915 77.562C134.203 77.838 134.347 78.24 134.347 78.768V84.708H134.383L136.579 82.044C136.879 81.672 137.155 81.402 137.407 81.234C137.671 81.066 138.025 80.982 138.469 80.982C138.913 80.982 139.255 81.09 139.495 81.306C139.735 81.522 139.855 81.792 139.855 82.116C139.867 82.44 139.741 82.764 139.477 83.088L137.569 85.356L139.765 88.128C140.017 88.476 140.119 88.806 140.071 89.118C140.035 89.418 139.885 89.67 139.621 89.874C139.369 90.066 139.045 90.162 138.649 90.162C138.157 90.162 137.767 90.078 137.479 89.91C137.203 89.73 136.921 89.454 136.633 89.082L134.383 86.31H134.347V88.542C134.347 89.622 133.807 90.162 132.727 90.162Z" fill="white"/>
</svg>
