<svg width="39" height="50" viewBox="0 0 39 50" fill="none" xmlns="http://www.w3.org/2000/svg">
<path d="M32.3375 20.5725C32.077 20.2759 31.9333 19.8947 31.9333 19.5C31.9333 19.1053 32.077 18.724 32.3375 18.4275L34.4175 16.0875C34.6467 15.8318 34.789 15.5101 34.8241 15.1686C34.8591 14.827 34.785 14.4831 34.6125 14.1862L31.3625 8.56373C31.1917 8.2672 30.9317 8.03216 30.6195 7.8921C30.3072 7.75204 29.9588 7.71411 29.6237 7.78373L26.5687 8.40123C26.18 8.48155 25.7753 8.41681 25.4311 8.21923C25.0868 8.02165 24.8267 7.70489 24.7 7.32873L23.7087 4.35498C23.5997 4.03222 23.392 3.75189 23.115 3.5536C22.838 3.35531 22.5057 3.2491 22.165 3.24998H15.665C15.3106 3.23149 14.96 3.32949 14.6665 3.52902C14.3731 3.72855 14.1531 4.01864 14.04 4.35498L13.13 7.32873C13.0033 7.70489 12.7432 8.02165 12.3989 8.21923C12.0547 8.41681 11.65 8.48155 11.2612 8.40123L8.125 7.78373C7.80739 7.73885 7.48361 7.78897 7.19444 7.92777C6.90527 8.06658 6.66364 8.28785 6.5 8.56373L3.25 14.1862C3.07313 14.4798 2.99361 14.8217 3.0228 15.1632C3.05198 15.5047 3.18838 15.8282 3.4125 16.0875L5.47625 18.4275C5.73677 18.724 5.88044 19.1053 5.88044 19.5C5.88044 19.8947 5.73677 20.2759 5.47625 20.5725L3.4125 22.9125C3.18838 23.1718 3.05198 23.4953 3.0228 23.8367C2.99361 24.1782 3.07313 24.5202 3.25 24.8137L6.5 30.4362C6.67078 30.7328 6.93082 30.9678 7.24303 31.1079C7.55525 31.2479 7.90371 31.2859 8.23875 31.2162L11.2937 30.5987C11.6825 30.5184 12.0872 30.5832 12.4314 30.7807C12.7757 30.9783 13.0358 31.2951 13.1625 31.6712L14.1537 34.645C14.2668 34.9813 14.4869 35.2714 14.7803 35.471C15.0737 35.6705 15.4244 35.7685 15.7787 35.75H22.2787C22.6194 35.7509 22.9517 35.6447 23.2288 35.4464C23.5058 35.2481 23.7135 34.9677 23.8225 34.645L24.8137 31.6712C24.9405 31.2951 25.2005 30.9783 25.5448 30.7807C25.8891 30.5832 26.2938 30.5184 26.6825 30.5987L29.7375 31.2162C30.0725 31.2859 30.421 31.2479 30.7332 31.1079C31.0454 30.9678 31.3055 30.7328 31.4762 30.4362L34.7262 24.8137C34.8988 24.5169 34.9728 24.173 34.9378 23.8314C34.9028 23.4898 34.7604 23.1681 34.5312 22.9125L32.3375 20.5725ZM29.9162 22.75L31.2162 24.2125L29.1362 27.82L27.2187 27.43C26.0484 27.1907 24.8309 27.3896 23.7975 27.9887C22.764 28.5878 21.9865 29.5455 21.6125 30.68L20.995 32.5H16.835L16.25 30.6475C15.876 29.513 15.0985 28.5553 14.065 27.9562C13.0316 27.3571 11.8141 27.1583 10.6437 27.3975L8.72625 27.7875L6.61375 24.1962L7.91375 22.7337C8.71318 21.8399 9.15514 20.6829 9.15514 19.4837C9.15514 18.2846 8.71318 17.1275 7.91375 16.2337L6.61375 14.7712L8.69375 11.1962L10.6112 11.5862C11.7816 11.8255 12.9991 11.6267 14.0325 11.0276C15.066 10.4284 15.8435 9.47074 16.2175 8.33623L16.835 6.49998H20.995L21.6125 8.35248C21.9865 9.48699 22.764 10.4447 23.7975 11.0438C24.8309 11.6429 26.0484 11.8417 27.2187 11.6025L29.1362 11.2125L31.2162 14.82L29.9162 16.2825C29.1258 17.1742 28.6893 18.3246 28.6893 19.5162C28.6893 20.7079 29.1258 21.8582 29.9162 22.75ZM18.915 13C17.6294 13 16.3727 13.3812 15.3038 14.0954C14.2349 14.8097 13.4018 15.8248 12.9098 17.0125C12.4178 18.2003 12.2891 19.5072 12.5399 20.7681C12.7907 22.0289 13.4098 23.1871 14.3188 24.0962C15.2278 25.0052 16.386 25.6243 17.6469 25.8751C18.9078 26.1259 20.2147 25.9972 21.4024 25.5052C22.5902 25.0132 23.6053 24.1801 24.3195 23.1112C25.0338 22.0423 25.415 20.7856 25.415 19.5C25.415 17.7761 24.7302 16.1228 23.5112 14.9038C22.2922 13.6848 20.6389 13 18.915 13ZM18.915 22.75C18.2722 22.75 17.6439 22.5594 17.1094 22.2023C16.5749 21.8451 16.1584 21.3376 15.9124 20.7437C15.6664 20.1498 15.602 19.4964 15.7274 18.8659C15.8528 18.2355 16.1624 17.6564 16.6169 17.2019C17.0714 16.7474 17.6505 16.4378 18.281 16.3124C18.9114 16.187 19.5649 16.2514 20.1587 16.4974C20.7526 16.7434 21.2602 17.1599 21.6173 17.6944C21.9744 18.2288 22.165 18.8572 22.165 19.5C22.165 20.3619 21.8226 21.1886 21.2131 21.7981C20.6036 22.4076 19.777 22.75 18.915 22.75Z" fill="#A6A6A6"/>
<rect x="3" y="45" width="32" height="5" rx="2.5" fill="#A6A6A6"/>
</svg>
