<?xml version="1.0" encoding="UTF-8" standalone="no"?><!DOCTYPE svg PUBLIC "-//W3C//DTD SVG 1.1//EN" "http://www.w3.org/Graphics/SVG/1.1/DTD/svg11.dtd"><svg width="100%" height="100%" viewBox="0 0 1644 781" version="1.1" xmlns="http://www.w3.org/2000/svg" xmlns:xlink="http://www.w3.org/1999/xlink" xml:space="preserve" xmlns:serif="http://www.serif.com/" style="fill-rule:evenodd;clip-rule:evenodd;stroke-linecap:round;stroke-linejoin:round;stroke-miterlimit:1.5;"><path d="M1644,0l-1644,0l0,662.525c0,65.231 52.88,118.111 118.11,118.111l1407.78,-0c65.23,-0 118.11,-52.88 118.11,-118.111l0,-662.525Z" style="fill:#38a1ea;"/><clipPath id="_clip1"><path d="M1644,0l-1644,0l0,662.525c0,65.231 52.88,118.111 118.11,118.111l1407.78,-0c65.23,-0 118.11,-52.88 118.11,-118.111l0,-662.525Z"/></clipPath><g clip-path="url(#_clip1)"><path d="M1055.83,-10.427c-0,0 294.055,462.993 -61.366,801.489" style="fill:none;stroke:#87ceff;stroke-width:8.33px;"/><path d="M1229.06,789.851l535.4,1.211l0,-801.489l-610.937,0c-0,0 368.36,406.377 75.537,800.278Z" style="fill:#1086d7;"/></g></svg>