<svg width="32" height="32" viewBox="0 0 32 32" fill="none" xmlns="http://www.w3.org/2000/svg">
<path d="M9.09 13.428L8.22 16H6L9.724 6H12.292L16 16H13.666L12.796 13.428H9.09ZM12.358 11.956L11 7.912H10.902L9.544 11.956H12.36H12.358Z" fill="#444444"/>
<path d="M0 4C0 2.93913 0.421427 1.92172 1.17157 1.17157C1.92172 0.421427 2.93913 0 4 0L18 0C19.0609 0 20.0783 0.421427 20.8284 1.17157C21.5786 1.92172 22 2.93913 22 4V10H28C29.0609 10 30.0783 10.4214 30.8284 11.1716C31.5786 11.9217 32 12.9391 32 14V28C32 29.0609 31.5786 30.0783 30.8284 30.8284C30.0783 31.5786 29.0609 32 28 32H14C12.9391 32 11.9217 31.5786 11.1716 30.8284C10.4214 30.0783 10 29.0609 10 28V22H4C2.93913 22 1.92172 21.5786 1.17157 20.8284C0.421427 20.0783 0 19.0609 0 18V4ZM4 2C3.46957 2 2.96086 2.21071 2.58579 2.58579C2.21071 2.96086 2 3.46957 2 4V18C2 18.5304 2.21071 19.0391 2.58579 19.4142C2.96086 19.7893 3.46957 20 4 20H18C18.5304 20 19.0391 19.7893 19.4142 19.4142C19.7893 19.0391 20 18.5304 20 18V4C20 3.46957 19.7893 2.96086 19.4142 2.58579C19.0391 2.21071 18.5304 2 18 2H4ZM18.276 21.99C18.662 22.592 19.08 23.156 19.536 23.682C18.04 24.832 16.19 25.684 14 26.266C14.356 26.7 14.902 27.536 15.11 28C17.36 27.282 19.27 26.312 20.882 25.012C22.436 26.342 24.36 27.342 26.742 27.956C27.008 27.448 27.57 26.61 28 26.176C25.75 25.67 23.886 24.788 22.36 23.608C23.722 22.114 24.804 20.306 25.602 18.094H28V16H22V18.094H23.53C22.894 19.782 22.05 21.186 20.986 22.354C20.6921 22.0409 20.4151 21.7125 20.156 21.37C19.5916 21.7319 18.9449 21.9451 18.276 21.99Z" fill="#444444"/>
</svg>
